<svg width="20" height="49" viewBox="0 0 20 49" fill="none" xmlns="http://www.w3.org/2000/svg">
<path d="M9.11612 47.8839C9.60427 48.372 10.3957 48.372 10.8839 47.8839L18.8388 39.9289C19.327 39.4408 19.327 38.6493 18.8388 38.1612C18.3507 37.673 17.5592 37.673 17.0711 38.1612L10 45.2322L2.92893 38.1612C2.44078 37.673 1.64932 37.673 1.16117 38.1612C0.673011 38.6493 0.673012 39.4408 1.16117 39.9289L9.11612 47.8839ZM11.25 2C11.25 1.30964 10.6904 0.75 10 0.75C9.30964 0.75 8.75 1.30964 8.75 2L11.25 2ZM11.25 47L11.25 2L8.75 2L8.75 47L11.25 47Z" fill="#E71575"/>
</svg>
